<svg width="29" height="29" viewBox="0 0 29 29" fill="none" xmlns="http://www.w3.org/2000/svg">
<g id="majesticons:search-line">
<path id="Vector (Stroke)" fill-rule="evenodd" clip-rule="evenodd" d="M9.56174 4.44177C10.7371 3.95492 11.9968 3.70435 13.269 3.70435C14.5412 3.70435 15.8009 3.95492 16.9763 4.44177C18.1516 4.92861 19.2196 5.64219 20.1191 6.54176C21.0187 7.44134 21.7323 8.50928 22.2191 9.68463C22.706 10.86 22.9566 12.1197 22.9566 13.3919C22.9566 14.6641 22.706 15.9238 22.2191 17.0992C21.9249 17.8094 21.548 18.4804 21.0972 19.0988L24.856 22.8576C25.4418 23.4433 25.4418 24.3931 24.856 24.9789C24.2702 25.5647 23.3204 25.5647 22.7347 24.9789L18.9759 21.2201C17.3288 22.4209 15.3329 23.0794 13.269 23.0794C10.6997 23.0794 8.23564 22.0588 6.41887 20.242C4.6021 18.4253 3.58145 15.9612 3.58145 13.3919C3.58145 10.8226 4.6021 8.35853 6.41887 6.54176C7.31844 5.64219 8.38639 4.92861 9.56174 4.44177ZM17.9978 18.1207C18.6188 17.4997 19.1114 16.7625 19.4475 15.9511C19.7836 15.1397 19.9566 14.2701 19.9566 13.3919C19.9566 12.5137 19.7836 11.6441 19.4475 10.8327C19.1114 10.0213 18.6188 9.28408 17.9978 8.66308C17.3768 8.04209 16.6396 7.54949 15.8282 7.21341C15.0168 6.87732 14.1472 6.70435 13.269 6.70435C12.3908 6.70435 11.5212 6.87732 10.7098 7.21341C9.89842 7.54949 9.16119 8.04209 8.54019 8.66308C7.28603 9.91724 6.58145 11.6182 6.58145 13.3919C6.58145 15.1655 7.28603 16.8666 8.54019 18.1207C9.79435 19.3749 11.4954 20.0794 13.269 20.0794C15.0427 20.0794 16.7437 19.3749 17.9978 18.1207Z" fill="white"/>
</g>
</svg>
